:SAMPLES-PER-SECOND 30
:FULLY-SPECIFIED
:DEGREES
150
root  12.95557848 38.23844429 1.254302216 -4.761001587 -47.52200317 2.809005737
lowerback  11.41609955 2.807189941 -3.968270063
upperback  5.405809879 3.212059975 0.5121449828
thorax  -0.9889540076 1.490929961 2.369339943
lowerneck  2.401550055 4.533959866 -2.916909933
upperneck  13.6402998 5.084400177 8.150629997
head  3.747489929 2.611040115 3.377810001
lclavicle  0 -9.442270133e-015 7.951389973e-016
lhumerus  -5.485949993 -18.64660072 92.06919861
lradius  2.267260556e-031 -2.707096896e-031 129.9470062
lwrist  -7.062250077e-031 1.765562519e-031 23.20100021
lhand  -1.496451383e-031 -27.76390076 20.11240005
lfingers  90 7.125020027 -90
lthumb  89.89689403 5.08795885 91.16245106
rclavicle  0 -9.442270133e-015 7.951389973e-016
rhumerus  1.076979995 13.55140018 -89.26879883
rradius  -2.008322126e-031 2.904390861e-031 124.663002
rwrist  7.062250077e-031 7.062250077e-031 -47.51750183
rhand  -7.920061211e-032 -33.2840004 9.303460121
rfingers  -90 -7.125020027 -90
rthumb  -92.93752616 -24.25625642 -97.11982154
rfemur  -15.62250042 9.608599663 2.545099974
rtibia  -0 0 67.78150177
rfoot  -8.829444493e-032 -1.101600051 -3.372189999
rtoes  5.373923086 19.29304026 -105.8922705
lfemur  -25.61090088 -10.28559971 1.190389991
ltibia  -0 0 48.27600098
lfoot  -0 -5.007120132 -11.24330044
ltoes  -4.250644065 -19.5611806 -102.515957
151
root  12.80877722 38.45444326 1.128293304 -4.738006592 -45.39500427 2.966003418
lowerback  11.40699959 2.904279947 -4.409790039
upperback  5.457250118 3.296279907 0.3296419978
thorax  -0.9473839998 1.527629972 2.417900085
lowerneck  2.187449932 4.244989872 -3.823790073
upperneck  14.14949989 4.549819946 9.380459785
head  3.507800102 2.389750004 3.591559887
lclavicle  0 -9.442270133e-015 7.951389973e-016
lhumerus  -4.388539791 -19.46780014 91.17649841
lradius  2.258886806e-031 -2.714088141e-031 129.7700043
lwrist  -1.412450015e-030 8.827812596e-032 22.23789978
lhand  -1.496451383e-031 -27.76390076 20.11240005
lfingers  90 7.125020027 -90
lthumb  89.89689403 5.08795885 91.16245106
rclavicle  0 -9.442270133e-015 7.951389973e-016
rhumerus  1.487980008 12.97700024 -88.99240112
rradius  -2.026682544e-031 2.891608878e-031 125.026001
rwrist  7.062250077e-031 5.296687558e-031 -47.41640091
rhand  -7.920061211e-032 -33.2840004 9.303460121
rfingers  -90 -7.125020027 -90
rthumb  -92.93752616 -24.25625642 -97.11982154
rfemur  -15.68879986 9.289699554 2.59739995
rtibia  -0 0 67.96219635
rfoot  -4.414731488e-032 1.107820034 -1.944900036
rtoes  5.373923086 19.29304026 -105.8922705
lfemur  -25.95560074 -10.75800037 1.010120034
ltibia  -0 0 46.81439972
lfoot  -0 -3.365119934 -11.25909996
ltoes  -4.250644065 -19.5611806 -102.515957
152
root  12.6647784 38.66155429 1.015337809 -4.800003052 -43.43800354 3.231994629
lowerback  11.40680027 3.011909962 -4.880290031
upperback  5.594620228 3.391469955 0.1729539931
thorax  -0.8248310089 1.564419985 2.509769917
lowerneck  1.9102 4.056200027 -4.311069965
upperneck  14.28960037 4.295090199 9.541060448
head  3.594969988 2.259089947 3.728410006
lclavicle  0 -9.442270133e-015 7.951389973e-016
lhumerus  -3.067600012 -19.9253006 90.21089935
lradius  2.25599575e-031 -2.71649171e-031 129.7089996
lwrist  0 1.765562519e-031 21.9939003
lhand  -1.496451383e-031 -27.76390076 20.11240005
lfingers  90 7.125020027 -90
lthumb  89.89689403 5.08795885 91.16245106
rclavicle  0 -9.442270133e-015 7.951389973e-016
rhumerus  2.199280024 12.50979996 -88.49629974
rradius  -2.041744637e-031 2.880993383e-031 125.3249969
rwrist  7.062250077e-031 7.062250077e-031 -47.43709946
rhand  -7.920061211e-032 -33.2840004 9.303460121
rfingers  -90 -7.125020027 -90
rthumb  -92.93752616 -24.25625642 -97.11982154
rfemur  -15.83749962 9.174770355 2.537019968
rtibia  -0 0 68.29290009
rfoot  -4.694161994e-032 2.477159977 -0.4051289856
rtoes  5.373923086 19.29304026 -105.8922705
lfemur  -26.18490028 -11.09889984 0.6076599956
ltibia  -0 0 45.61510086
lfoot  -0 -2.111819983 -10.66160011
ltoes  -4.250644065 -19.5611806 -102.515957
153
root  12.52760024 38.84310985 0.8926422577 -4.789993286 -41.71299744 3.583999634
lowerback  11.30350018 3.273610115 -5.244460106
upperback  5.75387001 3.705349922 -0.1463699937
thorax  -0.6260089874 1.710880041 2.350739956
lowerneck  1.676440001 3.749919891 -4.495470047
upperneck  14.1310997 3.905260086 9.635549545
head  3.606509924 2.071019888 3.784460068
lclavicle  0 -9.442270133e-015 7.951389973e-016
lhumerus  -1.375849962 -20.29260063 88.96019745
lradius  2.250348737e-031 -2.721171549e-031 129.5899963
lwrist  0 -0 22.41250038
lhand  -1.496451383e-031 -27.76390076 20.11240005
lfingers  90 7.125020027 -90
lthumb  89.89689403 5.08795885 91.16245106
rclavicle  0 -9.442270133e-015 7.951389973e-016
rhumerus  3.155709982 11.57900047 -87.98069763
rradius  -2.0584042e-031 2.869114181e-031 125.6569977
rwrist  7.062250077e-031 3.531125038e-031 -47.52750015
rhand  -7.920061211e-032 -33.2840004 9.303460121
rfingers  -90 -7.125020027 -90
rthumb  -92.93752616 -24.25625642 -97.11982154
rfemur  -16.32530022 9.254150391 2.367449999
rtibia  -0 0 68.76950073
rfoot  -4.41988854e-032 2.981349945 1.178609967
rtoes  5.373923086 19.29304026 -105.8922705
lfemur  -26.49720001 -11.14050007 0.06603050232
ltibia  -0 0 44.78279877
lfoot  -0 -1.473819971 -9.303939819
ltoes  -4.250644065 -19.5611806 -102.515957
